<svg width="24" height="24" viewBox="0 0 24 24" fill="none" xmlns="http://www.w3.org/2000/svg">
<path d="M7.548 11.148C7.43875 11.2621 7.35311 11.3967 7.296 11.544C7.17598 11.8362 7.17598 12.1638 7.296 12.456C7.35311 12.6033 7.43875 12.7379 7.548 12.852L11.148 16.452C11.374 16.678 11.6804 16.8049 12 16.8049C12.3196 16.8049 12.626 16.678 12.852 16.452C13.078 16.226 13.2049 15.9196 13.2049 15.6C13.2049 15.2804 13.078 14.974 12.852 14.748L11.292 13.2H15.6C15.9183 13.2 16.2235 13.0736 16.4485 12.8485C16.6736 12.6235 16.8 12.3183 16.8 12C16.8 11.6817 16.6736 11.3765 16.4485 11.1515C16.2235 10.9264 15.9183 10.8 15.6 10.8H11.292L12.852 9.252C12.9645 9.14044 13.0537 9.00772 13.1147 8.86149C13.1756 8.71526 13.207 8.55841 13.207 8.4C13.207 8.24158 13.1756 8.08474 13.1147 7.93851C13.0537 7.79227 12.9645 7.65955 12.852 7.548C12.7404 7.43552 12.6077 7.34625 12.4615 7.28533C12.3153 7.22441 12.1584 7.19304 12 7.19304C11.8416 7.19304 11.6847 7.22441 11.5385 7.28533C11.3923 7.34625 11.2596 7.43552 11.148 7.548L7.548 11.148ZM0 12C0 14.3734 0.703788 16.6934 2.02236 18.6668C3.34094 20.6402 5.21508 22.1783 7.4078 23.0865C9.60051 23.9948 12.0133 24.2324 14.3411 23.7694C16.6689 23.3064 18.807 22.1635 20.4853 20.4853C22.1635 18.807 23.3064 16.6689 23.7694 14.3411C24.2324 12.0133 23.9948 9.60051 23.0865 7.4078C22.1783 5.21508 20.6402 3.34094 18.6668 2.02236C16.6934 0.703788 14.3734 0 12 0C10.4241 0 8.8637 0.310389 7.4078 0.913445C5.95189 1.5165 4.62902 2.40042 3.51472 3.51472C1.26428 5.76515 0 8.8174 0 12V12ZM21.6 12C21.6 13.8987 21.037 15.7548 19.9821 17.3335C18.9272 18.9122 17.4279 20.1426 15.6738 20.8692C13.9196 21.5958 11.9893 21.786 10.1271 21.4155C8.26491 21.0451 6.55436 20.1308 5.21177 18.7882C3.86919 17.4456 2.95488 15.7351 2.58446 13.8729C2.21404 12.0106 2.40415 10.0804 3.13076 8.32624C3.85736 6.57207 5.08781 5.07275 6.66652 4.01789C8.24524 2.96303 10.1013 2.4 12 2.4C14.5461 2.4 16.9879 3.41142 18.7882 5.21177C20.5886 7.01212 21.6 9.45392 21.6 12Z" fill="#9EA8AB"/>
</svg>
